#N canvas 1 78 450 584 10;
#N canvas 1 78 450 300 zeraSEQ 0;
#X msg 43 159 \$1 0 0 0 0 0 0 0 0;
#X obj 42 117 Uzi 8;
#X obj 43 77 inlet;
#X obj 36 199 outlet;
#X connect 0 0 3 0;
#X connect 1 2 0 0;
#X connect 2 0 1 0;
#X restore 317 157 pd zeraSEQ;
#X obj 282 111 bng 15 250 50 0 empty empty empty 17 7 0 10 -262144
-1 -1;
#N canvas -573 178 1264 560 SelectPeça 0;
#X obj 88 297 pack 0 0 0 0 0 0 0 0;
#X obj 57 49 r LASTMOVE_l01;
#X obj 40 95 unpack s s s s s s s s;
#N canvas 1 78 450 300 ==R 0;
#X obj 111 124 sel R;
#X obj 109 75 inlet;
#X msg 100 178 1;
#X msg 162 176 0;
#X obj 100 234 outlet;
#X obj 220 65 inlet;
#X connect 0 0 2 0;
#X connect 0 1 3 0;
#X connect 1 0 0 0;
#X connect 2 0 4 0;
#X connect 3 0 4 0;
#X connect 5 0 0 1;
#X restore -2 151 pd ==R;
#X obj 357 241 t b f;
#X obj 92 337 prepend 1;
#N canvas 1 78 450 300 ==R 0;
#X obj 111 124 sel R;
#X obj 109 75 inlet;
#X msg 100 178 1;
#X msg 162 176 0;
#X obj 100 234 outlet;
#X obj 220 65 inlet;
#X connect 0 0 2 0;
#X connect 0 1 3 0;
#X connect 1 0 0 0;
#X connect 2 0 4 0;
#X connect 3 0 4 0;
#X connect 5 0 0 1;
#X restore 91 152 pd ==R;
#X obj 392 57 tosymbol;
#N canvas 1 78 450 300 ==R 0;
#X obj 111 124 sel R;
#X obj 109 75 inlet;
#X msg 100 178 1;
#X msg 162 176 0;
#X obj 100 234 outlet;
#X obj 220 65 inlet;
#X connect 0 0 2 0;
#X connect 0 1 3 0;
#X connect 1 0 0 0;
#X connect 2 0 4 0;
#X connect 3 0 4 0;
#X connect 5 0 0 1;
#X restore 187 151 pd ==R;
#N canvas 1 78 450 300 ==R 0;
#X obj 111 124 sel R;
#X obj 109 75 inlet;
#X msg 100 178 1;
#X msg 162 176 0;
#X obj 100 234 outlet;
#X obj 220 65 inlet;
#X connect 0 0 2 0;
#X connect 0 1 3 0;
#X connect 1 0 0 0;
#X connect 2 0 4 0;
#X connect 3 0 4 0;
#X connect 5 0 0 1;
#X restore 280 152 pd ==R;
#N canvas 1 78 450 300 ==R 0;
#X obj 111 124 sel R;
#X obj 109 75 inlet;
#X msg 100 178 1;
#X msg 162 176 0;
#X obj 100 234 outlet;
#X obj 220 65 inlet;
#X connect 0 0 2 0;
#X connect 0 1 3 0;
#X connect 1 0 0 0;
#X connect 2 0 4 0;
#X connect 3 0 4 0;
#X connect 5 0 0 1;
#X restore 56 196 pd ==R;
#N canvas 1 78 450 300 ==R 0;
#X obj 111 124 sel R;
#X obj 109 75 inlet;
#X msg 100 178 1;
#X msg 162 176 0;
#X obj 100 234 outlet;
#X obj 220 65 inlet;
#X connect 0 0 2 0;
#X connect 0 1 3 0;
#X connect 1 0 0 0;
#X connect 2 0 4 0;
#X connect 3 0 4 0;
#X connect 5 0 0 1;
#X restore 121 199 pd ==R;
#N canvas 1 78 450 300 ==R 0;
#X obj 111 124 sel R;
#X obj 109 75 inlet;
#X msg 100 178 1;
#X msg 162 176 0;
#X obj 100 234 outlet;
#X obj 220 65 inlet;
#X connect 0 0 2 0;
#X connect 0 1 3 0;
#X connect 1 0 0 0;
#X connect 2 0 4 0;
#X connect 3 0 4 0;
#X connect 5 0 0 1;
#X restore 217 198 pd ==R;
#N canvas 1 78 450 300 ==R 0;
#X obj 111 124 sel R;
#X obj 109 75 inlet;
#X msg 100 178 1;
#X msg 162 176 0;
#X obj 100 234 outlet;
#X obj 220 65 inlet;
#X connect 0 0 2 0;
#X connect 0 1 3 0;
#X connect 1 0 0 0;
#X connect 2 0 4 0;
#X connect 3 0 4 0;
#X connect 5 0 0 1;
#X restore 310 199 pd ==R;
#X obj 456 2 inlet;
#X obj 568 308 pack 0 0 0 0 0 0 0 0;
#X obj 520 106 unpack s s s s s s s s;
#N canvas 1 78 450 300 ==R 0;
#X obj 111 124 sel R;
#X obj 109 75 inlet;
#X msg 100 178 1;
#X msg 162 176 0;
#X obj 100 234 outlet;
#X obj 220 65 inlet;
#X connect 0 0 2 0;
#X connect 0 1 3 0;
#X connect 1 0 0 0;
#X connect 2 0 4 0;
#X connect 3 0 4 0;
#X connect 5 0 0 1;
#X restore 478 162 pd ==R;
#X obj 837 252 t b f;
#N canvas 1 78 450 300 ==R 0;
#X obj 111 124 sel R;
#X obj 109 75 inlet;
#X msg 100 178 1;
#X msg 162 176 0;
#X obj 100 234 outlet;
#X obj 220 65 inlet;
#X connect 0 0 2 0;
#X connect 0 1 3 0;
#X connect 1 0 0 0;
#X connect 2 0 4 0;
#X connect 3 0 4 0;
#X connect 5 0 0 1;
#X restore 571 163 pd ==R;
#X obj 872 68 tosymbol;
#N canvas 1 78 450 300 ==R 0;
#X obj 111 124 sel R;
#X obj 109 75 inlet;
#X msg 100 178 1;
#X msg 162 176 0;
#X obj 100 234 outlet;
#X obj 220 65 inlet;
#X connect 0 0 2 0;
#X connect 0 1 3 0;
#X connect 1 0 0 0;
#X connect 2 0 4 0;
#X connect 3 0 4 0;
#X connect 5 0 0 1;
#X restore 667 162 pd ==R;
#N canvas 1 78 450 300 ==R 0;
#X obj 111 124 sel R;
#X obj 109 75 inlet;
#X msg 100 178 1;
#X msg 162 176 0;
#X obj 100 234 outlet;
#X obj 220 65 inlet;
#X connect 0 0 2 0;
#X connect 0 1 3 0;
#X connect 1 0 0 0;
#X connect 2 0 4 0;
#X connect 3 0 4 0;
#X connect 5 0 0 1;
#X restore 760 163 pd ==R;
#N canvas 1 78 450 300 ==R 0;
#X obj 111 124 sel R;
#X obj 109 75 inlet;
#X msg 100 178 1;
#X msg 162 176 0;
#X obj 100 234 outlet;
#X obj 220 65 inlet;
#X connect 0 0 2 0;
#X connect 0 1 3 0;
#X connect 1 0 0 0;
#X connect 2 0 4 0;
#X connect 3 0 4 0;
#X connect 5 0 0 1;
#X restore 508 209 pd ==R;
#N canvas 1 78 450 300 ==R 0;
#X obj 111 124 sel R;
#X obj 109 75 inlet;
#X msg 100 178 1;
#X msg 162 176 0;
#X obj 100 234 outlet;
#X obj 220 65 inlet;
#X connect 0 0 2 0;
#X connect 0 1 3 0;
#X connect 1 0 0 0;
#X connect 2 0 4 0;
#X connect 3 0 4 0;
#X connect 5 0 0 1;
#X restore 601 210 pd ==R;
#N canvas 1 78 450 300 ==R 0;
#X obj 111 124 sel R;
#X obj 109 75 inlet;
#X msg 100 178 1;
#X msg 162 176 0;
#X obj 100 234 outlet;
#X obj 220 65 inlet;
#X connect 0 0 2 0;
#X connect 0 1 3 0;
#X connect 1 0 0 0;
#X connect 2 0 4 0;
#X connect 3 0 4 0;
#X connect 5 0 0 1;
#X restore 697 209 pd ==R;
#N canvas 1 78 450 300 ==R 0;
#X obj 111 124 sel R;
#X obj 109 75 inlet;
#X msg 100 178 1;
#X msg 162 176 0;
#X obj 100 234 outlet;
#X obj 220 65 inlet;
#X connect 0 0 2 0;
#X connect 0 1 3 0;
#X connect 1 0 0 0;
#X connect 2 0 4 0;
#X connect 3 0 4 0;
#X connect 5 0 0 1;
#X restore 790 210 pd ==R;
#X obj 537 60 r LASTMOVE_l02;
#X obj 572 348 prepend 2;
#X obj 92 641 pack 0 0 0 0 0 0 0 0;
#X obj 44 439 unpack s s s s s s s s;
#X obj 361 585 t b f;
#N canvas 1 78 450 300 ==R 0;
#X obj 111 124 sel R;
#X obj 109 75 inlet;
#X msg 100 178 1;
#X msg 162 176 0;
#X obj 100 234 outlet;
#X obj 220 65 inlet;
#X connect 0 0 2 0;
#X connect 0 1 3 0;
#X connect 1 0 0 0;
#X connect 2 0 4 0;
#X connect 3 0 4 0;
#X connect 5 0 0 1;
#X restore 95 496 pd ==R;
#X obj 396 401 tosymbol;
#N canvas 1 78 450 300 ==R 0;
#X obj 111 124 sel R;
#X obj 109 75 inlet;
#X msg 100 178 1;
#X msg 162 176 0;
#X obj 100 234 outlet;
#X obj 220 65 inlet;
#X connect 0 0 2 0;
#X connect 0 1 3 0;
#X connect 1 0 0 0;
#X connect 2 0 4 0;
#X connect 3 0 4 0;
#X connect 5 0 0 1;
#X restore 191 495 pd ==R;
#N canvas 1 78 450 300 ==R 0;
#X obj 111 124 sel R;
#X obj 109 75 inlet;
#X msg 100 178 1;
#X msg 162 176 0;
#X obj 100 234 outlet;
#X obj 220 65 inlet;
#X connect 0 0 2 0;
#X connect 0 1 3 0;
#X connect 1 0 0 0;
#X connect 2 0 4 0;
#X connect 3 0 4 0;
#X connect 5 0 0 1;
#X restore 284 496 pd ==R;
#N canvas 1 78 450 300 ==R 0;
#X obj 111 124 sel R;
#X obj 109 75 inlet;
#X msg 100 178 1;
#X msg 162 176 0;
#X obj 100 234 outlet;
#X obj 220 65 inlet;
#X connect 0 0 2 0;
#X connect 0 1 3 0;
#X connect 1 0 0 0;
#X connect 2 0 4 0;
#X connect 3 0 4 0;
#X connect 5 0 0 1;
#X restore 32 542 pd ==R;
#N canvas 1 78 450 300 ==R 0;
#X obj 111 124 sel R;
#X obj 109 75 inlet;
#X msg 100 178 1;
#X msg 162 176 0;
#X obj 100 234 outlet;
#X obj 220 65 inlet;
#X connect 0 0 2 0;
#X connect 0 1 3 0;
#X connect 1 0 0 0;
#X connect 2 0 4 0;
#X connect 3 0 4 0;
#X connect 5 0 0 1;
#X restore 125 543 pd ==R;
#N canvas 1 78 450 300 ==R 0;
#X obj 111 124 sel R;
#X obj 109 75 inlet;
#X msg 100 178 1;
#X msg 162 176 0;
#X obj 100 234 outlet;
#X obj 220 65 inlet;
#X connect 0 0 2 0;
#X connect 0 1 3 0;
#X connect 1 0 0 0;
#X connect 2 0 4 0;
#X connect 3 0 4 0;
#X connect 5 0 0 1;
#X restore 221 542 pd ==R;
#N canvas 1 78 450 300 ==R 0;
#X obj 111 124 sel R;
#X obj 109 75 inlet;
#X msg 100 178 1;
#X msg 162 176 0;
#X obj 100 234 outlet;
#X obj 220 65 inlet;
#X connect 0 0 2 0;
#X connect 0 1 3 0;
#X connect 1 0 0 0;
#X connect 2 0 4 0;
#X connect 3 0 4 0;
#X connect 5 0 0 1;
#X restore 314 543 pd ==R;
#X obj 572 652 pack 0 0 0 0 0 0 0 0;
#X obj 524 450 unpack s s s s s s s s;
#N canvas 1 78 450 300 ==R 0;
#X obj 111 124 sel R;
#X obj 109 75 inlet;
#X msg 100 178 1;
#X msg 162 176 0;
#X obj 100 234 outlet;
#X obj 220 65 inlet;
#X connect 0 0 2 0;
#X connect 0 1 3 0;
#X connect 1 0 0 0;
#X connect 2 0 4 0;
#X connect 3 0 4 0;
#X connect 5 0 0 1;
#X restore 482 506 pd ==R;
#X obj 841 596 t b f;
#N canvas 1 78 450 300 ==R 0;
#X obj 111 124 sel R;
#X obj 109 75 inlet;
#X msg 100 178 1;
#X msg 162 176 0;
#X obj 100 234 outlet;
#X obj 220 65 inlet;
#X connect 0 0 2 0;
#X connect 0 1 3 0;
#X connect 1 0 0 0;
#X connect 2 0 4 0;
#X connect 3 0 4 0;
#X connect 5 0 0 1;
#X restore 575 507 pd ==R;
#X obj 876 412 tosymbol;
#N canvas 1 78 450 300 ==R 0;
#X obj 111 124 sel R;
#X obj 109 75 inlet;
#X msg 100 178 1;
#X msg 162 176 0;
#X obj 100 234 outlet;
#X obj 220 65 inlet;
#X connect 0 0 2 0;
#X connect 0 1 3 0;
#X connect 1 0 0 0;
#X connect 2 0 4 0;
#X connect 3 0 4 0;
#X connect 5 0 0 1;
#X restore 671 506 pd ==R;
#N canvas 1 78 450 300 ==R 0;
#X obj 111 124 sel R;
#X obj 109 75 inlet;
#X msg 100 178 1;
#X msg 162 176 0;
#X obj 100 234 outlet;
#X obj 220 65 inlet;
#X connect 0 0 2 0;
#X connect 0 1 3 0;
#X connect 1 0 0 0;
#X connect 2 0 4 0;
#X connect 3 0 4 0;
#X connect 5 0 0 1;
#X restore 764 507 pd ==R;
#N canvas 1 78 450 300 ==R 0;
#X obj 111 124 sel R;
#X obj 109 75 inlet;
#X msg 100 178 1;
#X msg 162 176 0;
#X obj 100 234 outlet;
#X obj 220 65 inlet;
#X connect 0 0 2 0;
#X connect 0 1 3 0;
#X connect 1 0 0 0;
#X connect 2 0 4 0;
#X connect 3 0 4 0;
#X connect 5 0 0 1;
#X restore 537 551 pd ==R;
#N canvas 1 78 450 300 ==R 0;
#X obj 111 124 sel R;
#X obj 109 75 inlet;
#X msg 100 178 1;
#X msg 162 176 0;
#X obj 100 234 outlet;
#X obj 220 65 inlet;
#X connect 0 0 2 0;
#X connect 0 1 3 0;
#X connect 1 0 0 0;
#X connect 2 0 4 0;
#X connect 3 0 4 0;
#X connect 5 0 0 1;
#X restore 605 554 pd ==R;
#N canvas 1 78 450 300 ==R 0;
#X obj 111 124 sel R;
#X obj 109 75 inlet;
#X msg 100 178 1;
#X msg 162 176 0;
#X obj 100 234 outlet;
#X obj 220 65 inlet;
#X connect 0 0 2 0;
#X connect 0 1 3 0;
#X connect 1 0 0 0;
#X connect 2 0 4 0;
#X connect 3 0 4 0;
#X connect 5 0 0 1;
#X restore 701 553 pd ==R;
#N canvas 1 78 450 300 ==R 0;
#X obj 111 124 sel R;
#X obj 109 75 inlet;
#X msg 100 178 1;
#X msg 162 176 0;
#X obj 100 234 outlet;
#X obj 220 65 inlet;
#X connect 0 0 2 0;
#X connect 0 1 3 0;
#X connect 1 0 0 0;
#X connect 2 0 4 0;
#X connect 3 0 4 0;
#X connect 5 0 0 1;
#X restore 794 554 pd ==R;
#X obj 1073 325 pack 0 0 0 0 0 0 0 0;
#X obj 1025 123 unpack s s s s s s s s;
#N canvas 1 78 450 300 ==R 0;
#X obj 111 124 sel R;
#X obj 109 75 inlet;
#X msg 100 178 1;
#X msg 162 176 0;
#X obj 100 234 outlet;
#X obj 220 65 inlet;
#X connect 0 0 2 0;
#X connect 0 1 3 0;
#X connect 1 0 0 0;
#X connect 2 0 4 0;
#X connect 3 0 4 0;
#X connect 5 0 0 1;
#X restore 983 179 pd ==R;
#X obj 1342 269 t b f;
#N canvas 1 78 450 300 ==R 0;
#X obj 111 124 sel R;
#X obj 109 75 inlet;
#X msg 100 178 1;
#X msg 162 176 0;
#X obj 100 234 outlet;
#X obj 220 65 inlet;
#X connect 0 0 2 0;
#X connect 0 1 3 0;
#X connect 1 0 0 0;
#X connect 2 0 4 0;
#X connect 3 0 4 0;
#X connect 5 0 0 1;
#X restore 1076 180 pd ==R;
#X obj 1377 85 tosymbol;
#N canvas 1 78 450 300 ==R 0;
#X obj 111 124 sel R;
#X obj 109 75 inlet;
#X msg 100 178 1;
#X msg 162 176 0;
#X obj 100 234 outlet;
#X obj 220 65 inlet;
#X connect 0 0 2 0;
#X connect 0 1 3 0;
#X connect 1 0 0 0;
#X connect 2 0 4 0;
#X connect 3 0 4 0;
#X connect 5 0 0 1;
#X restore 1172 179 pd ==R;
#N canvas 1 78 450 300 ==R 0;
#X obj 111 124 sel R;
#X obj 109 75 inlet;
#X msg 100 178 1;
#X msg 162 176 0;
#X obj 100 234 outlet;
#X obj 220 65 inlet;
#X connect 0 0 2 0;
#X connect 0 1 3 0;
#X connect 1 0 0 0;
#X connect 2 0 4 0;
#X connect 3 0 4 0;
#X connect 5 0 0 1;
#X restore 1265 180 pd ==R;
#N canvas 1 78 450 300 ==R 0;
#X obj 111 124 sel R;
#X obj 109 75 inlet;
#X msg 100 178 1;
#X msg 162 176 0;
#X obj 100 234 outlet;
#X obj 220 65 inlet;
#X connect 0 0 2 0;
#X connect 0 1 3 0;
#X connect 1 0 0 0;
#X connect 2 0 4 0;
#X connect 3 0 4 0;
#X connect 5 0 0 1;
#X restore 1013 226 pd ==R;
#N canvas 1 78 450 300 ==R 0;
#X obj 111 124 sel R;
#X obj 109 75 inlet;
#X msg 100 178 1;
#X msg 162 176 0;
#X obj 100 234 outlet;
#X obj 220 65 inlet;
#X connect 0 0 2 0;
#X connect 0 1 3 0;
#X connect 1 0 0 0;
#X connect 2 0 4 0;
#X connect 3 0 4 0;
#X connect 5 0 0 1;
#X restore 1106 227 pd ==R;
#N canvas 1 78 450 300 ==R 0;
#X obj 111 124 sel R;
#X obj 109 75 inlet;
#X msg 100 178 1;
#X msg 162 176 0;
#X obj 100 234 outlet;
#X obj 220 65 inlet;
#X connect 0 0 2 0;
#X connect 0 1 3 0;
#X connect 1 0 0 0;
#X connect 2 0 4 0;
#X connect 3 0 4 0;
#X connect 5 0 0 1;
#X restore 1202 226 pd ==R;
#N canvas 1 78 450 300 ==R 0;
#X obj 111 124 sel R;
#X obj 109 75 inlet;
#X msg 100 178 1;
#X msg 162 176 0;
#X obj 100 234 outlet;
#X obj 220 65 inlet;
#X connect 0 0 2 0;
#X connect 0 1 3 0;
#X connect 1 0 0 0;
#X connect 2 0 4 0;
#X connect 3 0 4 0;
#X connect 5 0 0 1;
#X restore 1295 227 pd ==R;
#X obj 1553 336 pack 0 0 0 0 0 0 0 0;
#X obj 1505 134 unpack s s s s s s s s;
#N canvas 1 78 450 300 ==R 0;
#X obj 111 124 sel R;
#X obj 109 75 inlet;
#X msg 100 178 1;
#X msg 162 176 0;
#X obj 100 234 outlet;
#X obj 220 65 inlet;
#X connect 0 0 2 0;
#X connect 0 1 3 0;
#X connect 1 0 0 0;
#X connect 2 0 4 0;
#X connect 3 0 4 0;
#X connect 5 0 0 1;
#X restore 1463 190 pd ==R;
#X obj 1822 280 t b f;
#N canvas 1 78 450 300 ==R 0;
#X obj 111 124 sel R;
#X obj 109 75 inlet;
#X msg 100 178 1;
#X msg 162 176 0;
#X obj 100 234 outlet;
#X obj 220 65 inlet;
#X connect 0 0 2 0;
#X connect 0 1 3 0;
#X connect 1 0 0 0;
#X connect 2 0 4 0;
#X connect 3 0 4 0;
#X connect 5 0 0 1;
#X restore 1556 191 pd ==R;
#X obj 1857 96 tosymbol;
#N canvas 1 78 450 300 ==R 0;
#X obj 111 124 sel R;
#X obj 109 75 inlet;
#X msg 100 178 1;
#X msg 162 176 0;
#X obj 100 234 outlet;
#X obj 220 65 inlet;
#X connect 0 0 2 0;
#X connect 0 1 3 0;
#X connect 1 0 0 0;
#X connect 2 0 4 0;
#X connect 3 0 4 0;
#X connect 5 0 0 1;
#X restore 1652 190 pd ==R;
#N canvas 1 78 450 300 ==R 0;
#X obj 111 124 sel R;
#X obj 109 75 inlet;
#X msg 100 178 1;
#X msg 162 176 0;
#X obj 100 234 outlet;
#X obj 220 65 inlet;
#X connect 0 0 2 0;
#X connect 0 1 3 0;
#X connect 1 0 0 0;
#X connect 2 0 4 0;
#X connect 3 0 4 0;
#X connect 5 0 0 1;
#X restore 1745 191 pd ==R;
#N canvas 1 78 450 300 ==R 0;
#X obj 111 124 sel R;
#X obj 109 75 inlet;
#X msg 100 178 1;
#X msg 162 176 0;
#X obj 100 234 outlet;
#X obj 220 65 inlet;
#X connect 0 0 2 0;
#X connect 0 1 3 0;
#X connect 1 0 0 0;
#X connect 2 0 4 0;
#X connect 3 0 4 0;
#X connect 5 0 0 1;
#X restore 1493 237 pd ==R;
#N canvas 1 78 450 300 ==R 0;
#X obj 111 124 sel R;
#X obj 109 75 inlet;
#X msg 100 178 1;
#X msg 162 176 0;
#X obj 100 234 outlet;
#X obj 220 65 inlet;
#X connect 0 0 2 0;
#X connect 0 1 3 0;
#X connect 1 0 0 0;
#X connect 2 0 4 0;
#X connect 3 0 4 0;
#X connect 5 0 0 1;
#X restore 1586 238 pd ==R;
#N canvas 1 78 450 300 ==R 0;
#X obj 111 124 sel R;
#X obj 109 75 inlet;
#X msg 100 178 1;
#X msg 162 176 0;
#X obj 100 234 outlet;
#X obj 220 65 inlet;
#X connect 0 0 2 0;
#X connect 0 1 3 0;
#X connect 1 0 0 0;
#X connect 2 0 4 0;
#X connect 3 0 4 0;
#X connect 5 0 0 1;
#X restore 1682 237 pd ==R;
#N canvas 1 78 450 300 ==R 0;
#X obj 111 124 sel R;
#X obj 109 75 inlet;
#X msg 100 178 1;
#X msg 162 176 0;
#X obj 100 234 outlet;
#X obj 220 65 inlet;
#X connect 0 0 2 0;
#X connect 0 1 3 0;
#X connect 1 0 0 0;
#X connect 2 0 4 0;
#X connect 3 0 4 0;
#X connect 5 0 0 1;
#X restore 1775 238 pd ==R;
#X obj 1077 669 pack 0 0 0 0 0 0 0 0;
#X obj 1029 467 unpack s s s s s s s s;
#X obj 1295 615 t b f;
#N canvas 1 78 450 300 ==R 0;
#X obj 111 124 sel R;
#X obj 109 75 inlet;
#X msg 100 178 1;
#X msg 162 176 0;
#X obj 100 234 outlet;
#X obj 220 65 inlet;
#X connect 0 0 2 0;
#X connect 0 1 3 0;
#X connect 1 0 0 0;
#X connect 2 0 4 0;
#X connect 3 0 4 0;
#X connect 5 0 0 1;
#X restore 1080 524 pd ==R;
#X obj 1381 429 tosymbol;
#N canvas 1 78 450 300 ==R 0;
#X obj 111 124 sel R;
#X obj 109 75 inlet;
#X msg 100 178 1;
#X msg 162 176 0;
#X obj 100 234 outlet;
#X obj 220 65 inlet;
#X connect 0 0 2 0;
#X connect 0 1 3 0;
#X connect 1 0 0 0;
#X connect 2 0 4 0;
#X connect 3 0 4 0;
#X connect 5 0 0 1;
#X restore 1176 523 pd ==R;
#N canvas 1 78 450 300 ==R 0;
#X obj 111 124 sel R;
#X obj 109 75 inlet;
#X msg 100 178 1;
#X msg 162 176 0;
#X obj 100 234 outlet;
#X obj 220 65 inlet;
#X connect 0 0 2 0;
#X connect 0 1 3 0;
#X connect 1 0 0 0;
#X connect 2 0 4 0;
#X connect 3 0 4 0;
#X connect 5 0 0 1;
#X restore 1269 524 pd ==R;
#N canvas 1 78 450 300 ==R 0;
#X obj 111 124 sel R;
#X obj 109 75 inlet;
#X msg 100 178 1;
#X msg 162 176 0;
#X obj 100 234 outlet;
#X obj 220 65 inlet;
#X connect 0 0 2 0;
#X connect 0 1 3 0;
#X connect 1 0 0 0;
#X connect 2 0 4 0;
#X connect 3 0 4 0;
#X connect 5 0 0 1;
#X restore 1017 570 pd ==R;
#N canvas 1 78 450 300 ==R 0;
#X obj 111 124 sel R;
#X obj 109 75 inlet;
#X msg 100 178 1;
#X msg 162 176 0;
#X obj 100 234 outlet;
#X obj 220 65 inlet;
#X connect 0 0 2 0;
#X connect 0 1 3 0;
#X connect 1 0 0 0;
#X connect 2 0 4 0;
#X connect 3 0 4 0;
#X connect 5 0 0 1;
#X restore 1110 571 pd ==R;
#N canvas 1 78 450 300 ==R 0;
#X obj 111 124 sel R;
#X obj 109 75 inlet;
#X msg 100 178 1;
#X msg 162 176 0;
#X obj 100 234 outlet;
#X obj 220 65 inlet;
#X connect 0 0 2 0;
#X connect 0 1 3 0;
#X connect 1 0 0 0;
#X connect 2 0 4 0;
#X connect 3 0 4 0;
#X connect 5 0 0 1;
#X restore 1206 570 pd ==R;
#N canvas 1 78 450 300 ==R 0;
#X obj 111 124 sel R;
#X obj 109 75 inlet;
#X msg 100 178 1;
#X msg 162 176 0;
#X obj 100 234 outlet;
#X obj 220 65 inlet;
#X connect 0 0 2 0;
#X connect 0 1 3 0;
#X connect 1 0 0 0;
#X connect 2 0 4 0;
#X connect 3 0 4 0;
#X connect 5 0 0 1;
#X restore 1299 571 pd ==R;
#X obj 1557 680 pack 0 0 0 0 0 0 0 0;
#X obj 1509 478 unpack s s s s s s s s;
#N canvas 1 78 450 300 ==R 0;
#X obj 111 124 sel R;
#X obj 109 75 inlet;
#X msg 100 178 1;
#X msg 162 176 0;
#X obj 100 234 outlet;
#X obj 220 65 inlet;
#X connect 0 0 2 0;
#X connect 0 1 3 0;
#X connect 1 0 0 0;
#X connect 2 0 4 0;
#X connect 3 0 4 0;
#X connect 5 0 0 1;
#X restore 1452 557 pd ==R;
#X obj 1826 624 t b f;
#N canvas 1 78 450 300 ==R 0;
#X obj 111 124 sel R;
#X obj 109 75 inlet;
#X msg 100 178 1;
#X msg 162 176 0;
#X obj 100 234 outlet;
#X obj 220 65 inlet;
#X connect 0 0 2 0;
#X connect 0 1 3 0;
#X connect 1 0 0 0;
#X connect 2 0 4 0;
#X connect 3 0 4 0;
#X connect 5 0 0 1;
#X restore 1560 535 pd ==R;
#X obj 1861 440 tosymbol;
#N canvas 1 78 450 300 ==R 0;
#X obj 111 124 sel R;
#X obj 109 75 inlet;
#X msg 100 178 1;
#X msg 162 176 0;
#X obj 100 234 outlet;
#X obj 220 65 inlet;
#X connect 0 0 2 0;
#X connect 0 1 3 0;
#X connect 1 0 0 0;
#X connect 2 0 4 0;
#X connect 3 0 4 0;
#X connect 5 0 0 1;
#X restore 1656 534 pd ==R;
#N canvas 1 78 450 300 ==R 0;
#X obj 111 124 sel R;
#X obj 109 75 inlet;
#X msg 100 178 1;
#X msg 162 176 0;
#X obj 100 234 outlet;
#X obj 220 65 inlet;
#X connect 0 0 2 0;
#X connect 0 1 3 0;
#X connect 1 0 0 0;
#X connect 2 0 4 0;
#X connect 3 0 4 0;
#X connect 5 0 0 1;
#X restore 1749 535 pd ==R;
#N canvas 1 78 450 300 ==R 0;
#X obj 111 124 sel R;
#X obj 109 75 inlet;
#X msg 100 178 1;
#X msg 162 176 0;
#X obj 100 234 outlet;
#X obj 220 65 inlet;
#X connect 0 0 2 0;
#X connect 0 1 3 0;
#X connect 1 0 0 0;
#X connect 2 0 4 0;
#X connect 3 0 4 0;
#X connect 5 0 0 1;
#X restore 1497 581 pd ==R;
#N canvas 1 78 450 300 ==R 0;
#X obj 111 124 sel R;
#X obj 109 75 inlet;
#X msg 100 178 1;
#X msg 162 176 0;
#X obj 100 234 outlet;
#X obj 220 65 inlet;
#X connect 0 0 2 0;
#X connect 0 1 3 0;
#X connect 1 0 0 0;
#X connect 2 0 4 0;
#X connect 3 0 4 0;
#X connect 5 0 0 1;
#X restore 1590 582 pd ==R;
#N canvas 1 78 450 300 ==R 0;
#X obj 111 124 sel R;
#X obj 109 75 inlet;
#X msg 100 178 1;
#X msg 162 176 0;
#X obj 100 234 outlet;
#X obj 220 65 inlet;
#X connect 0 0 2 0;
#X connect 0 1 3 0;
#X connect 1 0 0 0;
#X connect 2 0 4 0;
#X connect 3 0 4 0;
#X connect 5 0 0 1;
#X restore 1686 581 pd ==R;
#N canvas 1 78 450 300 ==R 0;
#X obj 111 124 sel R;
#X obj 109 75 inlet;
#X msg 100 178 1;
#X msg 162 176 0;
#X obj 100 234 outlet;
#X obj 220 65 inlet;
#X connect 0 0 2 0;
#X connect 0 1 3 0;
#X connect 1 0 0 0;
#X connect 2 0 4 0;
#X connect 3 0 4 0;
#X connect 5 0 0 1;
#X restore 1779 582 pd ==R;
#X obj 61 393 r LASTMOVE_l05;
#X obj 96 681 prepend 5;
#X obj 541 404 r LASTMOVE_l06;
#X obj 576 692 prepend 6;
#X obj 1042 77 r LASTMOVE_l03;
#X obj 1076 365 prepend 3;
#X obj 1523 89 r LASTMOVE_l04;
#X obj 1557 376 prepend 4;
#X obj 1046 421 r LASTMOVE_l07;
#X obj 1081 709 prepend 7;
#X obj 1526 432 r LASTMOVE_l08;
#X obj 1561 720 prepend 8;
#X obj 527 954 outlet;
#N canvas 1 78 450 300 ==R 0;
#X obj 111 124 sel R;
#X obj 109 75 inlet;
#X msg 100 178 1;
#X msg 162 176 0;
#X obj 100 234 outlet;
#X obj 220 65 inlet;
#X connect 0 0 2 0;
#X connect 0 1 3 0;
#X connect 1 0 0 0;
#X connect 2 0 4 0;
#X connect 3 0 4 0;
#X connect 5 0 0 1;
#X restore 950 526 pd ==R;
#X connect 0 0 5 0;
#X connect 1 0 2 0;
#X connect 2 0 3 0;
#X connect 2 1 6 0;
#X connect 2 2 8 0;
#X connect 2 3 9 0;
#X connect 2 4 10 0;
#X connect 2 5 11 0;
#X connect 2 6 12 0;
#X connect 2 7 13 0;
#X connect 3 0 0 0;
#X connect 4 0 0 0;
#X connect 4 1 0 7;
#X connect 5 0 111 0;
#X connect 6 0 0 1;
#X connect 7 0 3 1;
#X connect 7 0 6 1;
#X connect 7 0 8 1;
#X connect 7 0 9 1;
#X connect 7 0 10 1;
#X connect 7 0 11 1;
#X connect 7 0 12 1;
#X connect 7 0 13 1;
#X connect 8 0 0 2;
#X connect 9 0 0 3;
#X connect 10 0 0 4;
#X connect 11 0 0 5;
#X connect 12 0 0 6;
#X connect 13 0 4 0;
#X connect 14 0 7 0;
#X connect 14 0 20 0;
#X connect 14 0 33 0;
#X connect 14 0 45 0;
#X connect 14 0 57 0;
#X connect 14 0 80 0;
#X connect 14 0 69 0;
#X connect 14 0 92 0;
#X connect 15 0 28 0;
#X connect 16 0 17 0;
#X connect 16 1 19 0;
#X connect 16 2 21 0;
#X connect 16 3 22 0;
#X connect 16 4 23 0;
#X connect 16 5 24 0;
#X connect 16 6 25 0;
#X connect 16 7 26 0;
#X connect 17 0 15 0;
#X connect 18 0 15 0;
#X connect 18 1 15 7;
#X connect 19 0 15 1;
#X connect 20 0 17 1;
#X connect 20 0 19 1;
#X connect 20 0 21 1;
#X connect 20 0 22 1;
#X connect 20 0 23 1;
#X connect 20 0 24 1;
#X connect 20 0 25 1;
#X connect 20 0 26 1;
#X connect 21 0 15 2;
#X connect 22 0 15 3;
#X connect 23 0 15 4;
#X connect 24 0 15 5;
#X connect 25 0 15 6;
#X connect 26 0 18 0;
#X connect 27 0 16 0;
#X connect 28 0 111 0;
#X connect 29 0 100 0;
#X connect 30 0 36 0;
#X connect 30 1 32 0;
#X connect 30 2 34 0;
#X connect 30 3 35 0;
#X connect 30 5 37 0;
#X connect 30 6 38 0;
#X connect 30 7 39 0;
#X connect 31 0 29 0;
#X connect 31 1 29 7;
#X connect 32 0 29 1;
#X connect 33 0 32 1;
#X connect 33 0 34 1;
#X connect 33 0 35 1;
#X connect 33 0 36 1;
#X connect 33 0 37 1;
#X connect 33 0 38 1;
#X connect 33 0 39 1;
#X connect 34 0 29 2;
#X connect 35 0 29 3;
#X connect 36 0 29 0;
#X connect 37 0 29 5;
#X connect 38 0 29 6;
#X connect 39 0 31 0;
#X connect 40 0 102 0;
#X connect 41 0 42 0;
#X connect 41 1 44 0;
#X connect 41 2 46 0;
#X connect 41 3 47 0;
#X connect 41 4 48 0;
#X connect 41 5 49 0;
#X connect 41 6 50 0;
#X connect 41 7 51 0;
#X connect 42 0 40 0;
#X connect 43 0 40 0;
#X connect 43 1 40 7;
#X connect 44 0 40 1;
#X connect 45 0 42 1;
#X connect 45 0 44 1;
#X connect 45 0 46 1;
#X connect 45 0 47 1;
#X connect 45 0 48 1;
#X connect 45 0 49 1;
#X connect 45 0 50 1;
#X connect 45 0 51 1;
#X connect 46 0 40 2;
#X connect 47 0 40 3;
#X connect 48 0 40 4;
#X connect 49 0 40 5;
#X connect 50 0 40 6;
#X connect 51 0 43 0;
#X connect 52 0 104 0;
#X connect 53 0 54 0;
#X connect 53 1 56 0;
#X connect 53 2 58 0;
#X connect 53 3 59 0;
#X connect 53 4 60 0;
#X connect 53 5 61 0;
#X connect 53 6 62 0;
#X connect 53 7 63 0;
#X connect 54 0 52 0;
#X connect 55 0 52 0;
#X connect 55 1 52 7;
#X connect 56 0 52 1;
#X connect 57 0 54 1;
#X connect 57 0 56 1;
#X connect 57 0 58 1;
#X connect 57 0 59 1;
#X connect 57 0 60 1;
#X connect 57 0 61 1;
#X connect 57 0 62 1;
#X connect 57 0 63 1;
#X connect 58 0 52 2;
#X connect 59 0 52 3;
#X connect 60 0 52 4;
#X connect 61 0 52 5;
#X connect 62 0 52 6;
#X connect 63 0 55 0;
#X connect 64 0 106 0;
#X connect 65 0 66 0;
#X connect 65 1 68 0;
#X connect 65 2 70 0;
#X connect 65 3 71 0;
#X connect 65 4 72 0;
#X connect 65 5 73 0;
#X connect 65 6 74 0;
#X connect 65 7 75 0;
#X connect 66 0 64 0;
#X connect 67 0 64 0;
#X connect 67 1 64 7;
#X connect 68 0 64 1;
#X connect 69 0 66 1;
#X connect 69 0 68 1;
#X connect 69 0 70 1;
#X connect 69 0 71 1;
#X connect 69 0 72 1;
#X connect 69 0 73 1;
#X connect 69 0 74 1;
#X connect 69 0 75 1;
#X connect 70 0 64 2;
#X connect 71 0 64 3;
#X connect 72 0 64 4;
#X connect 73 0 64 5;
#X connect 74 0 64 6;
#X connect 75 0 67 0;
#X connect 76 0 108 0;
#X connect 77 0 112 0;
#X connect 77 1 79 0;
#X connect 77 2 81 0;
#X connect 77 3 82 0;
#X connect 77 4 83 0;
#X connect 77 5 84 0;
#X connect 77 6 85 0;
#X connect 77 7 86 0;
#X connect 78 0 76 0;
#X connect 78 1 76 7;
#X connect 79 0 76 1;
#X connect 80 0 79 1;
#X connect 80 0 81 1;
#X connect 80 0 82 1;
#X connect 80 0 83 1;
#X connect 80 0 84 1;
#X connect 80 0 85 1;
#X connect 80 0 86 1;
#X connect 80 0 112 1;
#X connect 81 0 76 2;
#X connect 82 0 76 3;
#X connect 83 0 76 4;
#X connect 84 0 76 5;
#X connect 85 0 76 6;
#X connect 86 0 78 0;
#X connect 87 0 110 0;
#X connect 88 0 89 0;
#X connect 88 1 91 0;
#X connect 88 2 93 0;
#X connect 88 3 94 0;
#X connect 88 4 95 0;
#X connect 88 5 96 0;
#X connect 88 6 97 0;
#X connect 88 7 98 0;
#X connect 89 0 87 0;
#X connect 90 0 87 0;
#X connect 90 1 87 7;
#X connect 91 0 87 1;
#X connect 92 0 89 1;
#X connect 92 0 91 1;
#X connect 92 0 93 1;
#X connect 92 0 94 1;
#X connect 92 0 95 1;
#X connect 92 0 96 1;
#X connect 92 0 97 1;
#X connect 92 0 98 1;
#X connect 93 0 87 2;
#X connect 94 0 87 3;
#X connect 95 0 87 4;
#X connect 96 0 87 5;
#X connect 97 0 87 6;
#X connect 98 0 90 0;
#X connect 99 0 30 0;
#X connect 100 0 111 0;
#X connect 101 0 41 0;
#X connect 102 0 111 0;
#X connect 103 0 53 0;
#X connect 104 0 111 0;
#X connect 105 0 65 0;
#X connect 106 0 111 0;
#X connect 107 0 77 0;
#X connect 108 0 111 0;
#X connect 109 0 88 0;
#X connect 110 0 111 0;
#X connect 112 0 76 0;
#X restore 314 97 pd SelectPeça;
#X obj 122 225 PIECE_ID_sequencer;
#X obj 305 30 loadbang;
#X obj 100 71 inlet;
#X text 128 200 *peão preto;
#X obj 250 163 image B_pawn.png 0;
#X msg 313 57 p;
#X connect 0 0 3 1;
#X connect 1 0 0 0;
#X connect 2 0 3 1;
#X connect 4 0 8 0;
#X connect 4 0 1 0;
#X connect 5 0 3 0;
#X connect 8 0 2 0;
#X coords 0 -1 1 1 200 300 1 100 100;
