#N canvas 0 78 1366 690 24;
#X obj 21 148 unpackOSC;
#X floatatom 176 216 10 0 0 1 millisecond_delay - -, f 10;
#X obj 40 262 pipelist;
#X obj 39 83 udpreceive 3000;
#X floatatom 825 460 3 0 0 0 - - -, f 3;
#X floatatom 885 458 3 0 0 0 - - -, f 3;
#X floatatom 942 460 3 0 0 0 - - -, f 3;
#X floatatom 1008 465 3 0 0 0 - - -, f 3;
#X floatatom 1074 369 5 0 0 0 - - -, f 5;
#X obj 827 305 unpack 0 0 0 0 0;
#X floatatom 535 140 9 0 0 0 - - -, f 9;
#X obj 927 200 tgl 15 0 empty empty empty 17 7 0 10 -4034 -1 -1 0 1
;
#X floatatom 674 225 9 0 0 0 - - -, f 9;
#X text 312 129 bytes received:;
#X text 431 264 total bytes received:;
#X text 718 473 from:;
#X obj 560 97 route received total from multicast;
#N canvas 315 422 999 300 coordenada_movimento 0;
#X obj 64 47 route /startPOS /endPOS;
#X obj 226 100 bytes2any;
#X obj 72 197 s startPOS;
#X obj 234 201 s endPOS;
#X obj 61 90 bytes2any;
#X obj 72 5 inlet;
#X obj 518 45 r startPOS;
#X obj 680 49 r endPOS;
#X obj 534 106 prepend set;
#X msg 556 161 a7;
#X obj 701 108 prepend set;
#X msg 723 163 a6;
#X obj 69 150 tosymbol;
#X obj 238 152 tosymbol;
#X connect 0 0 4 0;
#X connect 0 1 1 0;
#X connect 1 0 13 0;
#X connect 4 0 12 0;
#X connect 5 0 0 0;
#X connect 6 0 8 0;
#X connect 7 0 10 0;
#X connect 8 0 9 0;
#X connect 10 0 11 0;
#X connect 12 0 2 0;
#X connect 13 0 3 0;
#X restore 24 579 pd coordenada_movimento;
#N canvas 1 78 655 355 parserFEN 0;
#X obj 15 32 routeOSC /L1 /L2 /L3 /L4 /L5 /L6 /L7 /L8;
#N canvas 38 78 942 670 linha01 0;
#X obj 29 87 routeOSC /A /B /C /D /E /F /G /H;
#X obj 28 32 inlet;
#X msg 14 235 \$1 a1;
#X obj 163 157 bytes2any;
#X msg 154 257 \$1 b1;
#X obj 323 161 bytes2any;
#X obj 466 181 bytes2any;
#X msg 296 263 \$1 c1;
#X msg 443 273 \$1 d1;
#X obj 25 148 bytes2any;
#X obj 28 189 tosymbol;
#X obj 171 216 tosymbol;
#X obj 312 210 tosymbol;
#X obj 453 228 tosymbol;
#X obj 490 374 bytes2any;
#X obj 650 378 bytes2any;
#X obj 793 398 bytes2any;
#X obj 352 365 bytes2any;
#X obj 355 406 tosymbol;
#X obj 498 433 tosymbol;
#X obj 639 427 tosymbol;
#X obj 780 445 tosymbol;
#X msg 341 452 \$1 e1;
#X msg 481 474 \$1 f1;
#X msg 622 479 \$1 g1;
#X msg 770 490 \$1 h1;
#X obj 150 642 s linha01;
#X connect 0 0 9 0;
#X connect 0 1 3 0;
#X connect 0 2 5 0;
#X connect 0 3 6 0;
#X connect 0 4 17 0;
#X connect 0 5 14 0;
#X connect 0 6 15 0;
#X connect 0 7 16 0;
#X connect 1 0 0 0;
#X connect 2 0 26 0;
#X connect 3 0 11 0;
#X connect 4 0 26 0;
#X connect 5 0 12 0;
#X connect 6 0 13 0;
#X connect 7 0 26 0;
#X connect 8 0 26 0;
#X connect 9 0 10 0;
#X connect 10 0 2 0;
#X connect 11 0 4 0;
#X connect 12 0 7 0;
#X connect 13 0 8 0;
#X connect 14 0 19 0;
#X connect 15 0 20 0;
#X connect 16 0 21 0;
#X connect 17 0 18 0;
#X connect 18 0 22 0;
#X connect 19 0 23 0;
#X connect 20 0 24 0;
#X connect 21 0 25 0;
#X connect 22 0 26 0;
#X connect 23 0 26 0;
#X connect 24 0 26 0;
#X connect 25 0 26 0;
#X restore 19 87 pd linha01;
#N canvas 38 78 1071 652 linha02 0;
#X obj 29 87 routeOSC /A /B /C /D /E /F /G /H;
#X obj 28 32 inlet;
#X obj 163 157 bytes2any;
#X obj 323 161 bytes2any;
#X obj 466 181 bytes2any;
#X obj 25 148 bytes2any;
#X obj 28 189 tosymbol;
#X obj 171 216 tosymbol;
#X obj 312 210 tosymbol;
#X obj 453 228 tosymbol;
#X obj 490 374 bytes2any;
#X obj 650 378 bytes2any;
#X obj 793 398 bytes2any;
#X obj 352 365 bytes2any;
#X obj 355 406 tosymbol;
#X obj 498 433 tosymbol;
#X obj 639 427 tosymbol;
#X obj 780 445 tosymbol;
#X msg 14 235 \$1 a2;
#X msg 153 257 \$1 b2;
#X msg 296 263 \$1 c2;
#X msg 442 274 \$1 d2;
#X msg 341 452 \$1 e2;
#X msg 481 474 \$1 f2;
#X msg 622 479 \$1 g2;
#X msg 770 490 \$1 h2;
#X obj 73 616 s linha02;
#X connect 0 0 5 0;
#X connect 0 1 2 0;
#X connect 0 2 3 0;
#X connect 0 3 4 0;
#X connect 0 4 13 0;
#X connect 0 5 10 0;
#X connect 0 6 11 0;
#X connect 0 7 12 0;
#X connect 1 0 0 0;
#X connect 2 0 7 0;
#X connect 3 0 8 0;
#X connect 4 0 9 0;
#X connect 5 0 6 0;
#X connect 6 0 18 0;
#X connect 7 0 19 0;
#X connect 8 0 20 0;
#X connect 9 0 21 0;
#X connect 10 0 15 0;
#X connect 11 0 16 0;
#X connect 12 0 17 0;
#X connect 13 0 14 0;
#X connect 14 0 22 0;
#X connect 15 0 23 0;
#X connect 16 0 24 0;
#X connect 17 0 25 0;
#X connect 18 0 26 0;
#X connect 19 0 26 0;
#X connect 20 0 26 0;
#X connect 21 0 26 0;
#X connect 22 0 26 0;
#X connect 23 0 26 0;
#X connect 24 0 26 0;
#X connect 25 0 26 0;
#X restore 79 138 pd linha02;
#N canvas 38 78 942 670 linha03 0;
#X obj 29 87 routeOSC /A /B /C /D /E /F /G /H;
#X obj 28 32 inlet;
#X obj 163 157 bytes2any;
#X obj 323 161 bytes2any;
#X obj 466 181 bytes2any;
#X obj 25 148 bytes2any;
#X obj 28 189 tosymbol;
#X obj 171 216 tosymbol;
#X obj 312 210 tosymbol;
#X obj 453 228 tosymbol;
#X obj 490 374 bytes2any;
#X obj 650 378 bytes2any;
#X obj 793 398 bytes2any;
#X obj 352 365 bytes2any;
#X obj 355 406 tosymbol;
#X obj 498 433 tosymbol;
#X obj 639 427 tosymbol;
#X obj 780 445 tosymbol;
#X msg 12 237 \$1 a3;
#X msg 154 257 \$1 b3;
#X msg 296 263 \$1 c3;
#X msg 443 273 \$1 d3;
#X msg 344 453 \$1 e3;
#X msg 485 476 \$1 f3;
#X msg 625 480 \$1 g3;
#X msg 770 490 \$1 h3;
#X obj 150 642 s linha03;
#X connect 0 0 5 0;
#X connect 0 1 2 0;
#X connect 0 2 3 0;
#X connect 0 3 4 0;
#X connect 0 4 13 0;
#X connect 0 5 10 0;
#X connect 0 6 11 0;
#X connect 0 7 12 0;
#X connect 1 0 0 0;
#X connect 2 0 7 0;
#X connect 3 0 8 0;
#X connect 4 0 9 0;
#X connect 5 0 6 0;
#X connect 6 0 18 0;
#X connect 7 0 19 0;
#X connect 8 0 20 0;
#X connect 9 0 21 0;
#X connect 10 0 15 0;
#X connect 11 0 16 0;
#X connect 12 0 17 0;
#X connect 13 0 14 0;
#X connect 14 0 22 0;
#X connect 15 0 23 0;
#X connect 16 0 24 0;
#X connect 17 0 25 0;
#X connect 18 0 26 0;
#X connect 19 0 26 0;
#X connect 20 0 26 0;
#X connect 21 0 26 0;
#X connect 22 0 26 0;
#X connect 23 0 26 0;
#X connect 24 0 26 0;
#X connect 25 0 26 0;
#X restore 136 191 pd linha03;
#N canvas 38 78 1071 652 linha04 0;
#X obj 29 87 routeOSC /A /B /C /D /E /F /G /H;
#X obj 28 32 inlet;
#X obj 163 157 bytes2any;
#X obj 323 161 bytes2any;
#X obj 466 181 bytes2any;
#X obj 25 148 bytes2any;
#X obj 28 189 tosymbol;
#X obj 171 216 tosymbol;
#X obj 312 210 tosymbol;
#X obj 453 228 tosymbol;
#X obj 490 374 bytes2any;
#X obj 650 378 bytes2any;
#X obj 793 398 bytes2any;
#X obj 352 365 bytes2any;
#X obj 355 406 tosymbol;
#X obj 498 433 tosymbol;
#X obj 639 427 tosymbol;
#X obj 780 445 tosymbol;
#X msg 14 235 \$1 a4;
#X msg 153 257 \$1 b4;
#X msg 296 263 \$1 c4;
#X msg 442 274 \$1 d4;
#X msg 341 452 \$1 e4;
#X msg 481 474 \$1 f4;
#X msg 622 479 \$1 g4;
#X msg 770 490 \$1 h4;
#X obj 72 616 s linha04;
#X connect 0 0 5 0;
#X connect 0 1 2 0;
#X connect 0 2 3 0;
#X connect 0 3 4 0;
#X connect 0 4 13 0;
#X connect 0 5 10 0;
#X connect 0 6 11 0;
#X connect 0 7 12 0;
#X connect 1 0 0 0;
#X connect 2 0 7 0;
#X connect 3 0 8 0;
#X connect 4 0 9 0;
#X connect 5 0 6 0;
#X connect 6 0 18 0;
#X connect 7 0 19 0;
#X connect 8 0 20 0;
#X connect 9 0 21 0;
#X connect 10 0 15 0;
#X connect 11 0 16 0;
#X connect 12 0 17 0;
#X connect 13 0 14 0;
#X connect 14 0 22 0;
#X connect 15 0 23 0;
#X connect 16 0 24 0;
#X connect 17 0 25 0;
#X connect 18 0 26 0;
#X connect 19 0 26 0;
#X connect 20 0 26 0;
#X connect 21 0 26 0;
#X connect 22 0 26 0;
#X connect 23 0 26 0;
#X connect 24 0 26 0;
#X connect 25 0 26 0;
#X restore 196 242 pd linha04;
#N canvas 38 78 942 670 linha05 0;
#X obj 29 87 routeOSC /A /B /C /D /E /F /G /H;
#X obj 28 32 inlet;
#X obj 163 157 bytes2any;
#X obj 323 161 bytes2any;
#X obj 466 181 bytes2any;
#X obj 25 148 bytes2any;
#X obj 28 189 tosymbol;
#X obj 171 216 tosymbol;
#X obj 312 210 tosymbol;
#X obj 453 228 tosymbol;
#X obj 490 374 bytes2any;
#X obj 650 378 bytes2any;
#X obj 793 398 bytes2any;
#X obj 352 365 bytes2any;
#X obj 355 406 tosymbol;
#X obj 498 433 tosymbol;
#X obj 639 427 tosymbol;
#X obj 780 445 tosymbol;
#X msg 14 235 \$1 a5;
#X msg 154 257 \$1 b5;
#X msg 294 263 \$1 c5;
#X msg 444 274 \$1 d5;
#X msg 341 452 \$1 e5;
#X msg 481 474 \$1 f5;
#X msg 623 480 \$1 g5;
#X msg 770 490 \$1 h5;
#X obj 149 642 s linha05;
#X connect 0 0 5 0;
#X connect 0 1 2 0;
#X connect 0 2 3 0;
#X connect 0 3 4 0;
#X connect 0 4 13 0;
#X connect 0 5 10 0;
#X connect 0 6 11 0;
#X connect 0 7 12 0;
#X connect 1 0 0 0;
#X connect 2 0 7 0;
#X connect 3 0 8 0;
#X connect 4 0 9 0;
#X connect 5 0 6 0;
#X connect 6 0 18 0;
#X connect 7 0 19 0;
#X connect 8 0 20 0;
#X connect 9 0 21 0;
#X connect 10 0 15 0;
#X connect 11 0 16 0;
#X connect 12 0 17 0;
#X connect 13 0 14 0;
#X connect 14 0 22 0;
#X connect 15 0 23 0;
#X connect 16 0 24 0;
#X connect 17 0 25 0;
#X connect 18 0 26 0;
#X connect 19 0 26 0;
#X connect 20 0 26 0;
#X connect 21 0 26 0;
#X connect 22 0 26 0;
#X connect 23 0 26 0;
#X connect 24 0 26 0;
#X connect 25 0 26 0;
#X restore 261 133 pd linha05;
#N canvas 38 78 1071 652 linha06 0;
#X obj 29 87 routeOSC /A /B /C /D /E /F /G /H;
#X obj 28 32 inlet;
#X obj 163 157 bytes2any;
#X obj 323 161 bytes2any;
#X obj 466 181 bytes2any;
#X obj 25 148 bytes2any;
#X obj 28 189 tosymbol;
#X obj 171 216 tosymbol;
#X obj 312 210 tosymbol;
#X obj 453 228 tosymbol;
#X obj 490 374 bytes2any;
#X obj 650 378 bytes2any;
#X obj 793 398 bytes2any;
#X obj 352 365 bytes2any;
#X obj 355 406 tosymbol;
#X obj 498 433 tosymbol;
#X obj 639 427 tosymbol;
#X obj 780 445 tosymbol;
#X msg 13 235 \$1 a6;
#X msg 153 257 \$1 b6;
#X msg 296 263 \$1 c6;
#X msg 440 274 \$1 d6;
#X msg 341 452 \$1 e6;
#X msg 480 474 \$1 f6;
#X msg 622 479 \$1 g6;
#X msg 770 490 \$1 h6;
#X obj 73 616 s linha06;
#X connect 0 0 5 0;
#X connect 0 1 2 0;
#X connect 0 2 3 0;
#X connect 0 3 4 0;
#X connect 0 4 13 0;
#X connect 0 5 10 0;
#X connect 0 6 11 0;
#X connect 0 7 12 0;
#X connect 1 0 0 0;
#X connect 2 0 7 0;
#X connect 3 0 8 0;
#X connect 4 0 9 0;
#X connect 5 0 6 0;
#X connect 6 0 18 0;
#X connect 7 0 19 0;
#X connect 8 0 20 0;
#X connect 9 0 21 0;
#X connect 10 0 15 0;
#X connect 11 0 16 0;
#X connect 12 0 17 0;
#X connect 13 0 14 0;
#X connect 14 0 22 0;
#X connect 15 0 23 0;
#X connect 16 0 24 0;
#X connect 17 0 25 0;
#X connect 18 0 26 0;
#X connect 19 0 26 0;
#X connect 20 0 26 0;
#X connect 21 0 26 0;
#X connect 22 0 26 0;
#X connect 23 0 26 0;
#X connect 24 0 26 0;
#X connect 25 0 26 0;
#X restore 325 186 pd linha06;
#N canvas 38 78 942 670 linha07 0;
#X obj 29 87 routeOSC /A /B /C /D /E /F /G /H;
#X obj 28 32 inlet;
#X obj 163 157 bytes2any;
#X obj 323 161 bytes2any;
#X obj 466 181 bytes2any;
#X obj 25 148 bytes2any;
#X obj 28 189 tosymbol;
#X obj 171 216 tosymbol;
#X obj 312 210 tosymbol;
#X obj 453 228 tosymbol;
#X obj 490 374 bytes2any;
#X obj 650 378 bytes2any;
#X obj 793 398 bytes2any;
#X obj 352 365 bytes2any;
#X obj 355 406 tosymbol;
#X obj 498 433 tosymbol;
#X obj 639 427 tosymbol;
#X obj 780 445 tosymbol;
#X msg 12 237 \$1 a7;
#X msg 154 257 \$1 b7;
#X msg 296 263 \$1 c7;
#X msg 444 274 \$1 d7;
#X msg 345 452 \$1 e7;
#X msg 485 476 \$1 f7;
#X msg 625 480 \$1 g7;
#X msg 770 490 \$1 h7;
#X obj 150 642 s linha07;
#X connect 0 0 5 0;
#X connect 0 1 2 0;
#X connect 0 2 3 0;
#X connect 0 3 4 0;
#X connect 0 4 13 0;
#X connect 0 5 10 0;
#X connect 0 6 11 0;
#X connect 0 7 12 0;
#X connect 1 0 0 0;
#X connect 2 0 7 0;
#X connect 3 0 8 0;
#X connect 4 0 9 0;
#X connect 5 0 6 0;
#X connect 6 0 18 0;
#X connect 7 0 19 0;
#X connect 8 0 20 0;
#X connect 9 0 21 0;
#X connect 10 0 15 0;
#X connect 11 0 16 0;
#X connect 12 0 17 0;
#X connect 13 0 14 0;
#X connect 14 0 22 0;
#X connect 15 0 23 0;
#X connect 16 0 24 0;
#X connect 17 0 25 0;
#X connect 18 0 26 0;
#X connect 19 0 26 0;
#X connect 20 0 26 0;
#X connect 21 0 26 0;
#X connect 22 0 26 0;
#X connect 23 0 26 0;
#X connect 24 0 26 0;
#X connect 25 0 26 0;
#X restore 378 237 pd linha07;
#N canvas 38 78 1071 652 linha08 0;
#X obj 29 87 routeOSC /A /B /C /D /E /F /G /H;
#X obj 28 32 inlet;
#X obj 163 157 bytes2any;
#X obj 323 161 bytes2any;
#X obj 466 181 bytes2any;
#X obj 25 148 bytes2any;
#X obj 28 189 tosymbol;
#X obj 171 216 tosymbol;
#X obj 312 210 tosymbol;
#X obj 453 228 tosymbol;
#X obj 490 374 bytes2any;
#X obj 650 378 bytes2any;
#X obj 793 398 bytes2any;
#X obj 352 365 bytes2any;
#X obj 355 406 tosymbol;
#X obj 498 433 tosymbol;
#X obj 639 427 tosymbol;
#X obj 780 445 tosymbol;
#X msg 14 235 \$1 a8;
#X msg 155 257 \$1 b8;
#X msg 296 263 \$1 c8;
#X msg 442 274 \$1 d8;
#X msg 341 452 \$1 e8;
#X msg 476 476 \$1 f8;
#X msg 622 479 \$1 g8;
#X msg 770 490 \$1 h8;
#X obj 73 616 s linha08;
#X connect 0 0 5 0;
#X connect 0 1 2 0;
#X connect 0 2 3 0;
#X connect 0 3 4 0;
#X connect 0 4 13 0;
#X connect 0 5 10 0;
#X connect 0 6 11 0;
#X connect 0 7 12 0;
#X connect 1 0 0 0;
#X connect 2 0 7 0;
#X connect 3 0 8 0;
#X connect 4 0 9 0;
#X connect 5 0 6 0;
#X connect 6 0 18 0;
#X connect 7 0 19 0;
#X connect 8 0 20 0;
#X connect 9 0 21 0;
#X connect 10 0 15 0;
#X connect 11 0 16 0;
#X connect 12 0 17 0;
#X connect 13 0 14 0;
#X connect 14 0 22 0;
#X connect 15 0 23 0;
#X connect 16 0 24 0;
#X connect 17 0 25 0;
#X connect 18 0 26 0;
#X connect 19 0 26 0;
#X connect 20 0 26 0;
#X connect 21 0 26 0;
#X connect 22 0 26 0;
#X connect 23 0 26 0;
#X connect 24 0 26 0;
#X connect 25 0 26 0;
#X restore 437 288 pd linha08;
#X obj 15 -16 inlet;
#X connect 0 0 1 0;
#X connect 0 1 2 0;
#X connect 0 2 3 0;
#X connect 0 3 4 0;
#X connect 0 4 5 0;
#X connect 0 5 6 0;
#X connect 0 6 7 0;
#X connect 0 7 8 0;
#X connect 9 0 0 0;
#X restore 28 519 pd parserFEN;
#N canvas 1 118 637 569 estudo_mandaOSC 0;
#X obj 86 142 udpsend;
#X msg 87 51 disconnect;
#X obj 32 -67 packOSC;
#X obj 86 177 tgl 15 0 empty empty 1=connected 20 8 0 8 -4034 -257985
-1 0 1;
#X msg 39 -123 send /move \$1;
#X msg 3 -15 connect 127.0.0.1 3001;
#X obj 39 -166 tosymbol;
#X msg -31 -219 a2a4;
#X msg 47 -218 b2b4;
#X connect 0 0 3 0;
#X connect 1 0 0 0;
#X connect 2 0 0 0;
#X connect 4 0 2 0;
#X connect 5 0 0 0;
#X connect 6 0 4 0;
#X connect 7 0 6 0;
#X connect 8 0 6 0;
#X restore 1090 32 pd estudo_mandaOSC;
#X obj 365 488 r tabuleiro;
#X obj 364 549 print;
#N canvas 843 105 760 683 sequencerFEN 1;
#X obj 56 35 BlackKnightSeq;
#X obj 55 337 WhiteRookSeq;
#X obj 263 337 WhitePawnSeq;
#X obj 263 34 BlackPawnSeq;
#X obj 119 -16 timing.tempo_ 120 1 8;
#X obj 294 -15 timing.tempo_ 120 1 8;
#X obj 62 -16 tgl 40 0 empty empty empty 17 7 0 10 -45076 -232576 -1
0 1;
#X connect 4 0 3 0;
#X connect 4 0 2 0;
#X connect 5 0 1 0;
#X connect 5 0 0 0;
#X connect 6 0 4 0;
#X connect 6 0 5 0;
#X restore 544 552 pd sequencerFEN;
#N canvas 1 78 655 355 FENmsgs 0;
#X obj 15 32 routeOSC /L1 /L2 /L3 /L4 /L5 /L6 /L7 /L8;
#N canvas 38 78 942 670 linha01 0;
#X obj 29 87 routeOSC /A /B /C /D /E /F /G /H;
#X obj 28 32 inlet;
#X obj 163 157 bytes2any;
#X obj 323 161 bytes2any;
#X obj 466 181 bytes2any;
#X obj 25 148 bytes2any;
#X obj 28 189 tosymbol;
#X obj 171 216 tosymbol;
#X obj 312 210 tosymbol;
#X obj 453 228 tosymbol;
#X obj 490 374 bytes2any;
#X obj 650 378 bytes2any;
#X obj 793 398 bytes2any;
#X obj 352 365 bytes2any;
#X obj 355 406 tosymbol;
#X obj 498 433 tosymbol;
#X obj 639 427 tosymbol;
#X obj 780 445 tosymbol;
#X obj 61 571 pack s s s s s s s s;
#X obj 70 621 print;
#X obj 71 531 bng 15 250 50 0 empty empty empty 17 7 0 10 -262144 -1
-1;
#X obj 765 538 t b s;
#X obj 443 604 s LASTMOVE_l01;
#X connect 0 0 5 0;
#X connect 0 1 2 0;
#X connect 0 2 3 0;
#X connect 0 3 4 0;
#X connect 0 4 13 0;
#X connect 0 5 10 0;
#X connect 0 6 11 0;
#X connect 0 7 12 0;
#X connect 1 0 0 0;
#X connect 2 0 7 0;
#X connect 3 0 8 0;
#X connect 4 0 9 0;
#X connect 5 0 6 0;
#X connect 6 0 18 0;
#X connect 7 0 18 1;
#X connect 8 0 18 2;
#X connect 9 0 18 3;
#X connect 10 0 15 0;
#X connect 11 0 16 0;
#X connect 12 0 17 0;
#X connect 13 0 14 0;
#X connect 14 0 18 4;
#X connect 15 0 18 5;
#X connect 16 0 18 6;
#X connect 17 0 21 0;
#X connect 18 0 19 0;
#X connect 18 0 22 0;
#X connect 20 0 18 0;
#X connect 21 0 20 0;
#X connect 21 1 18 7;
#X restore 19 87 pd linha01;
#N canvas 38 78 1071 652 linha02 0;
#X obj 29 87 routeOSC /A /B /C /D /E /F /G /H;
#X obj 28 32 inlet;
#X obj 163 157 bytes2any;
#X obj 323 161 bytes2any;
#X obj 466 181 bytes2any;
#X obj 25 148 bytes2any;
#X obj 28 189 tosymbol;
#X obj 172 205 tosymbol;
#X obj 312 210 tosymbol;
#X obj 453 228 tosymbol;
#X obj 490 374 bytes2any;
#X obj 650 378 bytes2any;
#X obj 793 398 bytes2any;
#X obj 352 365 bytes2any;
#X obj 355 406 tosymbol;
#X obj 498 433 tosymbol;
#X obj 639 427 tosymbol;
#X obj 780 445 tosymbol;
#X obj 69 585 pack s s s s s s s s;
#X obj 78 635 print;
#X obj 79 545 bng 15 250 50 0 empty empty empty 17 7 0 10 -262144 -1
-1;
#X obj 773 552 t b s;
#X obj 451 618 s LASTMOVE_l02;
#X connect 0 0 5 0;
#X connect 0 1 2 0;
#X connect 0 2 3 0;
#X connect 0 3 4 0;
#X connect 0 4 13 0;
#X connect 0 5 10 0;
#X connect 0 6 11 0;
#X connect 0 7 12 0;
#X connect 1 0 0 0;
#X connect 2 0 7 0;
#X connect 3 0 8 0;
#X connect 4 0 9 0;
#X connect 5 0 6 0;
#X connect 6 0 18 0;
#X connect 7 0 18 1;
#X connect 8 0 18 2;
#X connect 9 0 18 3;
#X connect 10 0 15 0;
#X connect 11 0 16 0;
#X connect 12 0 17 0;
#X connect 13 0 14 0;
#X connect 14 0 18 4;
#X connect 15 0 18 5;
#X connect 16 0 18 6;
#X connect 17 0 21 0;
#X connect 18 0 19 0;
#X connect 18 0 22 0;
#X connect 20 0 18 0;
#X connect 21 0 20 0;
#X connect 21 1 18 7;
#X restore 79 138 pd linha02;
#N canvas 38 78 942 670 linha03 0;
#X obj 29 87 routeOSC /A /B /C /D /E /F /G /H;
#X obj 28 32 inlet;
#X obj 163 157 bytes2any;
#X obj 323 161 bytes2any;
#X obj 466 181 bytes2any;
#X obj 25 148 bytes2any;
#X obj 28 189 tosymbol;
#X obj 171 216 tosymbol;
#X obj 312 210 tosymbol;
#X obj 453 228 tosymbol;
#X obj 490 374 bytes2any;
#X obj 650 378 bytes2any;
#X obj 793 398 bytes2any;
#X obj 352 365 bytes2any;
#X obj 355 406 tosymbol;
#X obj 498 433 tosymbol;
#X obj 639 427 tosymbol;
#X obj 780 445 tosymbol;
#X obj 61 571 pack s s s s s s s s;
#X obj 70 621 print;
#X obj 71 531 bng 15 250 50 0 empty empty empty 17 7 0 10 -262144 -1
-1;
#X obj 765 538 t b s;
#X obj 444 603 s LASTMOVE_l03;
#X connect 0 0 5 0;
#X connect 0 1 2 0;
#X connect 0 2 3 0;
#X connect 0 3 4 0;
#X connect 0 4 13 0;
#X connect 0 5 10 0;
#X connect 0 6 11 0;
#X connect 0 7 12 0;
#X connect 1 0 0 0;
#X connect 2 0 7 0;
#X connect 3 0 8 0;
#X connect 4 0 9 0;
#X connect 5 0 6 0;
#X connect 6 0 18 0;
#X connect 7 0 18 1;
#X connect 8 0 18 2;
#X connect 9 0 18 3;
#X connect 10 0 15 0;
#X connect 11 0 16 0;
#X connect 12 0 17 0;
#X connect 13 0 14 0;
#X connect 14 0 18 4;
#X connect 15 0 18 5;
#X connect 16 0 18 6;
#X connect 17 0 21 0;
#X connect 18 0 19 0;
#X connect 18 0 22 0;
#X connect 20 0 18 0;
#X connect 21 0 20 0;
#X connect 21 1 18 7;
#X restore 136 191 pd linha03;
#N canvas 38 78 1071 652 linha04 0;
#X obj 29 87 routeOSC /A /B /C /D /E /F /G /H;
#X obj 28 32 inlet;
#X obj 163 157 bytes2any;
#X obj 323 161 bytes2any;
#X obj 466 181 bytes2any;
#X obj 25 148 bytes2any;
#X obj 28 189 tosymbol;
#X obj 171 216 tosymbol;
#X obj 312 210 tosymbol;
#X obj 453 228 tosymbol;
#X obj 490 374 bytes2any;
#X obj 650 378 bytes2any;
#X obj 793 398 bytes2any;
#X obj 352 365 bytes2any;
#X obj 355 406 tosymbol;
#X obj 498 433 tosymbol;
#X obj 639 427 tosymbol;
#X obj 780 445 tosymbol;
#X obj 61 571 pack s s s s s s s s;
#X obj 70 621 print;
#X obj 71 531 bng 15 250 50 0 empty empty empty 17 7 0 10 -262144 -1
-1;
#X obj 765 538 t b s;
#X obj 443 604 s LASTMOVE_l04;
#X connect 0 0 5 0;
#X connect 0 1 2 0;
#X connect 0 2 3 0;
#X connect 0 3 4 0;
#X connect 0 4 13 0;
#X connect 0 5 10 0;
#X connect 0 6 11 0;
#X connect 0 7 12 0;
#X connect 1 0 0 0;
#X connect 2 0 7 0;
#X connect 3 0 8 0;
#X connect 4 0 9 0;
#X connect 5 0 6 0;
#X connect 6 0 18 0;
#X connect 7 0 18 1;
#X connect 8 0 18 2;
#X connect 9 0 18 3;
#X connect 10 0 15 0;
#X connect 11 0 16 0;
#X connect 12 0 17 0;
#X connect 13 0 14 0;
#X connect 14 0 18 4;
#X connect 15 0 18 5;
#X connect 16 0 18 6;
#X connect 17 0 21 0;
#X connect 18 0 19 0;
#X connect 18 0 22 0;
#X connect 20 0 18 0;
#X connect 21 0 20 0;
#X connect 21 1 18 7;
#X restore 196 242 pd linha04;
#N canvas 38 78 942 670 linha05 0;
#X obj 29 87 routeOSC /A /B /C /D /E /F /G /H;
#X obj 28 32 inlet;
#X obj 163 157 bytes2any;
#X obj 323 161 bytes2any;
#X obj 466 181 bytes2any;
#X obj 25 148 bytes2any;
#X obj 28 189 tosymbol;
#X obj 171 216 tosymbol;
#X obj 312 210 tosymbol;
#X obj 453 228 tosymbol;
#X obj 490 374 bytes2any;
#X obj 650 378 bytes2any;
#X obj 793 398 bytes2any;
#X obj 352 365 bytes2any;
#X obj 355 406 tosymbol;
#X obj 498 433 tosymbol;
#X obj 639 427 tosymbol;
#X obj 780 445 tosymbol;
#X obj 61 571 pack s s s s s s s s;
#X obj 70 621 print;
#X obj 71 531 bng 15 250 50 0 empty empty empty 17 7 0 10 -262144 -1
-1;
#X obj 765 538 t b s;
#X obj 441 603 s LASTMOVE_l05;
#X connect 0 0 5 0;
#X connect 0 1 2 0;
#X connect 0 2 3 0;
#X connect 0 3 4 0;
#X connect 0 4 13 0;
#X connect 0 5 10 0;
#X connect 0 6 11 0;
#X connect 0 7 12 0;
#X connect 1 0 0 0;
#X connect 2 0 7 0;
#X connect 3 0 8 0;
#X connect 4 0 9 0;
#X connect 5 0 6 0;
#X connect 6 0 18 0;
#X connect 7 0 18 1;
#X connect 8 0 18 2;
#X connect 9 0 18 3;
#X connect 10 0 15 0;
#X connect 11 0 16 0;
#X connect 12 0 17 0;
#X connect 13 0 14 0;
#X connect 14 0 18 4;
#X connect 15 0 18 5;
#X connect 16 0 18 6;
#X connect 17 0 21 0;
#X connect 18 0 19 0;
#X connect 18 0 22 0;
#X connect 20 0 18 0;
#X connect 21 0 20 0;
#X connect 21 1 18 7;
#X restore 261 133 pd linha05;
#N canvas 38 78 1071 652 linha06 0;
#X obj 29 87 routeOSC /A /B /C /D /E /F /G /H;
#X obj 28 32 inlet;
#X obj 163 157 bytes2any;
#X obj 323 161 bytes2any;
#X obj 466 181 bytes2any;
#X obj 25 148 bytes2any;
#X obj 28 189 tosymbol;
#X obj 171 216 tosymbol;
#X obj 312 210 tosymbol;
#X obj 453 228 tosymbol;
#X obj 490 374 bytes2any;
#X obj 650 378 bytes2any;
#X obj 793 398 bytes2any;
#X obj 352 365 bytes2any;
#X obj 355 406 tosymbol;
#X obj 498 433 tosymbol;
#X obj 639 427 tosymbol;
#X obj 780 445 tosymbol;
#X obj 61 571 pack s s s s s s s s;
#X obj 70 621 print;
#X obj 71 531 bng 15 250 50 0 empty empty empty 17 7 0 10 -262144 -1
-1;
#X obj 765 538 t b s;
#X obj 443 604 s LASTMOVE_l06;
#X connect 0 0 5 0;
#X connect 0 1 2 0;
#X connect 0 2 3 0;
#X connect 0 3 4 0;
#X connect 0 4 13 0;
#X connect 0 5 10 0;
#X connect 0 6 11 0;
#X connect 0 7 12 0;
#X connect 1 0 0 0;
#X connect 2 0 7 0;
#X connect 3 0 8 0;
#X connect 4 0 9 0;
#X connect 5 0 6 0;
#X connect 6 0 18 0;
#X connect 7 0 18 1;
#X connect 8 0 18 2;
#X connect 9 0 18 3;
#X connect 10 0 15 0;
#X connect 11 0 16 0;
#X connect 12 0 17 0;
#X connect 13 0 14 0;
#X connect 14 0 18 4;
#X connect 15 0 18 5;
#X connect 16 0 18 6;
#X connect 17 0 21 0;
#X connect 18 0 19 0;
#X connect 18 0 22 0;
#X connect 20 0 18 0;
#X connect 21 0 20 0;
#X connect 21 1 18 7;
#X restore 325 186 pd linha06;
#N canvas 38 78 942 670 linha07 0;
#X obj 29 87 routeOSC /A /B /C /D /E /F /G /H;
#X obj 28 32 inlet;
#X obj 163 157 bytes2any;
#X obj 323 161 bytes2any;
#X obj 466 181 bytes2any;
#X obj 25 148 bytes2any;
#X obj 28 189 tosymbol;
#X obj 171 216 tosymbol;
#X obj 312 210 tosymbol;
#X obj 453 228 tosymbol;
#X obj 490 374 bytes2any;
#X obj 650 378 bytes2any;
#X obj 793 398 bytes2any;
#X obj 352 365 bytes2any;
#X obj 355 406 tosymbol;
#X obj 498 433 tosymbol;
#X obj 639 427 tosymbol;
#X obj 780 445 tosymbol;
#X obj 61 571 pack s s s s s s s s;
#X obj 70 621 print;
#X obj 71 531 bng 15 250 50 0 empty empty empty 17 7 0 10 -262144 -1
-1;
#X obj 765 538 t b s;
#X obj 443 604 s LASTMOVE_l07;
#X connect 0 0 5 0;
#X connect 0 1 2 0;
#X connect 0 2 3 0;
#X connect 0 3 4 0;
#X connect 0 4 13 0;
#X connect 0 5 10 0;
#X connect 0 6 11 0;
#X connect 0 7 12 0;
#X connect 1 0 0 0;
#X connect 2 0 7 0;
#X connect 3 0 8 0;
#X connect 4 0 9 0;
#X connect 5 0 6 0;
#X connect 6 0 18 0;
#X connect 7 0 18 1;
#X connect 8 0 18 2;
#X connect 9 0 18 3;
#X connect 10 0 15 0;
#X connect 11 0 16 0;
#X connect 12 0 17 0;
#X connect 13 0 14 0;
#X connect 14 0 18 4;
#X connect 15 0 18 5;
#X connect 16 0 18 6;
#X connect 17 0 21 0;
#X connect 18 0 19 0;
#X connect 18 0 22 0;
#X connect 20 0 18 0;
#X connect 21 0 20 0;
#X connect 21 1 18 7;
#X restore 378 237 pd linha07;
#N canvas 38 78 1071 652 linha08 0;
#X obj 29 87 routeOSC /A /B /C /D /E /F /G /H;
#X obj 28 32 inlet;
#X obj 163 157 bytes2any;
#X obj 323 161 bytes2any;
#X obj 466 181 bytes2any;
#X obj 25 148 bytes2any;
#X obj 28 189 tosymbol;
#X obj 171 216 tosymbol;
#X obj 312 210 tosymbol;
#X obj 453 228 tosymbol;
#X obj 490 374 bytes2any;
#X obj 650 378 bytes2any;
#X obj 793 398 bytes2any;
#X obj 352 365 bytes2any;
#X obj 355 406 tosymbol;
#X obj 498 433 tosymbol;
#X obj 639 427 tosymbol;
#X obj 780 445 tosymbol;
#X obj 61 571 pack s s s s s s s s;
#X obj 70 621 print;
#X obj 71 531 bng 15 250 50 0 empty empty empty 17 7 0 10 -262144 -1
-1;
#X obj 765 538 t b s;
#X obj 443 604 s LASTMOVE_l08;
#X connect 0 0 5 0;
#X connect 0 1 2 0;
#X connect 0 2 3 0;
#X connect 0 3 4 0;
#X connect 0 4 13 0;
#X connect 0 5 10 0;
#X connect 0 6 11 0;
#X connect 0 7 12 0;
#X connect 1 0 0 0;
#X connect 2 0 7 0;
#X connect 3 0 8 0;
#X connect 4 0 9 0;
#X connect 5 0 6 0;
#X connect 6 0 18 0;
#X connect 7 0 18 1;
#X connect 8 0 18 2;
#X connect 9 0 18 3;
#X connect 10 0 15 0;
#X connect 11 0 16 0;
#X connect 12 0 17 0;
#X connect 13 0 14 0;
#X connect 14 0 18 4;
#X connect 15 0 18 5;
#X connect 16 0 18 6;
#X connect 17 0 21 0;
#X connect 18 0 19 0;
#X connect 18 0 22 0;
#X connect 20 0 18 0;
#X connect 21 0 20 0;
#X connect 21 1 18 7;
#X restore 437 288 pd linha08;
#X obj 15 -16 inlet;
#X connect 0 0 1 0;
#X connect 0 1 2 0;
#X connect 0 2 3 0;
#X connect 0 3 4 0;
#X connect 0 4 5 0;
#X connect 0 5 6 0;
#X connect 0 6 7 0;
#X connect 0 7 8 0;
#X connect 9 0 0 0;
#X restore 53 397 pd FENmsgs;
#X connect 0 0 2 0;
#X connect 0 1 1 0;
#X connect 0 1 2 1;
#X connect 2 0 23 0;
#X connect 3 0 0 0;
#X connect 3 1 16 0;
#X connect 9 0 4 0;
#X connect 9 1 5 0;
#X connect 9 2 6 0;
#X connect 9 3 7 0;
#X connect 9 4 8 0;
#X connect 16 0 10 0;
#X connect 16 1 12 0;
#X connect 16 2 9 0;
#X connect 16 3 11 0;
#X connect 20 0 21 0;
